<svg width="194" height="47" viewBox="0 0 194 47" fill="none" xmlns="http://www.w3.org/2000/svg">
<path d="M46.1169 16.2769L24.0841 6.72927C23.7114 6.56778 23.2886 6.56778 22.916 6.72927L0.883071 16.2769C-0.294219 16.787 -0.294495 18.4621 0.883071 18.9723L8.81142 22.4079V31.5787C8.81142 36.5207 15.2634 40.3918 23.5 40.3918C31.7366 40.3918 38.1886 36.5207 38.1886 31.5787V22.4079L39.6575 21.7714V37.4541C39.6575 38.2653 40.3151 38.923 41.1263 38.923C41.9375 38.923 42.5952 38.2653 42.5952 37.4541V20.4984L46.1169 18.9724C47.2942 18.4622 47.2944 16.7871 46.1169 16.2769V16.2769ZM23.5 9.67782L41.8386 17.6246L40.3842 18.2549L23.6821 16.1671C22.8771 16.0671 22.1431 16.6375 22.0424 17.4424C21.9418 18.2473 22.5128 18.9815 23.3178 19.0821L35.0817 20.5526L23.5 25.5713C13.1393 21.0817 15.346 22.0379 5.1614 17.6245L23.5 9.67782ZM35.2509 31.5788C35.2509 32.9627 34.115 34.3876 32.1344 35.4879C27.4175 38.1084 19.5963 38.1161 14.8656 35.4879C12.885 34.3876 11.7491 32.9627 11.7491 31.5788V23.681L22.916 28.52C23.2879 28.6812 23.7107 28.6817 24.0841 28.52L35.2509 23.681V31.5788Z" fill="#003566"/>
<path d="M66.4961 24.6602C67.707 24.793 68.7344 25.0156 69.5781 25.3281C70.4219 25.6406 71.1055 26.0156 71.6289 26.4531C72.1602 26.8828 72.543 27.3633 72.7773 27.8945C73.0195 28.418 73.1406 28.9648 73.1406 29.5352C73.1406 30.1914 73.0352 30.7695 72.8242 31.2695C72.6133 31.7695 72.332 32.2109 71.9805 32.5938C71.6367 32.9688 71.2383 33.2852 70.7852 33.543C70.3398 33.8008 69.8789 34.0078 69.4023 34.1641C68.9336 34.3281 68.4688 34.4453 68.0078 34.5156C67.5469 34.5938 67.1328 34.6367 66.7656 34.6445H66.4727C66.082 34.6367 65.6328 34.6016 65.125 34.5391C64.625 34.4844 64.1094 34.3945 63.5781 34.2695C63.0547 34.1445 62.5391 33.9844 62.0312 33.7891C61.5234 33.5859 61.0703 33.3359 60.6719 33.0391C60.2734 32.7422 59.9531 32.3906 59.7109 31.9844C59.4688 31.5781 59.3477 31.1055 59.3477 30.5664C59.3477 30.2773 59.3945 30.0234 59.4883 29.8047C59.582 29.5859 59.7109 29.4023 59.875 29.2539C60.0391 29.0977 60.2266 28.9766 60.4375 28.8906C60.6562 28.8047 60.8906 28.7539 61.1406 28.7383C61.4453 28.7383 61.7266 28.8047 61.9844 28.9375C62.25 29.0625 62.4805 29.2422 62.6758 29.4766C62.8711 29.7031 63.0273 29.9805 63.1445 30.3086C63.2695 30.6289 63.3398 30.9883 63.3555 31.3867C63.3711 31.707 63.4453 32.0352 63.5781 32.3711C63.7109 32.707 63.9062 33.0117 64.1641 33.2852C64.4219 33.5586 64.7422 33.7812 65.125 33.9531C65.5078 34.125 65.957 34.2109 66.4727 34.2109C66.8789 34.2109 67.2461 34.1289 67.5742 33.9648C67.9102 33.8008 68.1953 33.582 68.4297 33.3086C68.6641 33.0352 68.8438 32.7188 68.9688 32.3594C69.0938 31.9922 69.1562 31.6094 69.1562 31.2109C69.1562 30.8516 69.0938 30.4961 68.9688 30.1445C68.8438 29.793 68.6484 29.4805 68.3828 29.207C68.1172 28.9258 67.7773 28.6953 67.3633 28.5156C66.9492 28.3359 66.4531 28.2344 65.875 28.2109C64.6953 28.1562 63.6875 27.9805 62.8516 27.6836C62.0234 27.3867 61.3438 27.0039 60.8125 26.5352C60.2812 26.0586 59.8906 25.5156 59.6406 24.9062C59.3984 24.2969 59.2773 23.6562 59.2773 22.9844C59.2773 22.2578 59.3867 21.6211 59.6055 21.0742C59.8242 20.5195 60.1133 20.043 60.4727 19.6445C60.8398 19.2383 61.2578 18.9023 61.7266 18.6367C62.1953 18.3633 62.6797 18.1445 63.1797 17.9805C63.6875 17.8164 64.1875 17.7031 64.6797 17.6406C65.1797 17.5703 65.6406 17.5352 66.0625 17.5352H66.2031C66.5938 17.543 67.0273 17.5781 67.5039 17.6406C67.9883 17.6953 68.4766 17.7852 68.9688 17.9102C69.4688 18.0352 69.9492 18.1992 70.4102 18.4023C70.8789 18.6055 71.293 18.8555 71.6523 19.1523C72.0195 19.4492 72.3125 19.8008 72.5312 20.207C72.75 20.6055 72.8594 21.0664 72.8594 21.5898C72.8594 21.8945 72.8086 22.1602 72.707 22.3867C72.6055 22.6133 72.4688 22.8047 72.2969 22.9609C72.1328 23.1094 71.9375 23.2227 71.7109 23.3008C71.4844 23.3789 71.25 23.418 71.0078 23.418C70.7109 23.418 70.4336 23.3516 70.1758 23.2188C69.918 23.0859 69.6914 22.9023 69.4961 22.668C69.3086 22.4336 69.1562 22.1562 69.0391 21.8359C68.9297 21.5078 68.875 21.1484 68.875 20.7578C68.875 20.4219 68.832 20.0898 68.7461 19.7617C68.6602 19.4336 68.5117 19.1406 68.3008 18.8828C68.0977 18.6172 67.8242 18.4023 67.4805 18.2383C67.1367 18.0742 66.7109 17.9844 66.2031 17.9688H66.0859C65.7031 17.9844 65.3477 18.0977 65.0195 18.3086C64.6992 18.5117 64.4219 18.7812 64.1875 19.1172C63.9531 19.4531 63.7695 19.832 63.6367 20.2539C63.5117 20.668 63.4492 21.0898 63.4492 21.5195C63.4492 21.8945 63.5039 22.2578 63.6133 22.6094C63.7305 22.9609 63.9102 23.2812 64.1523 23.5703C64.4023 23.8516 64.7188 24.0898 65.1016 24.2852C65.4844 24.4805 65.9492 24.6055 66.4961 24.6602ZM84.3203 27.4023C84.3203 27.6289 84.2852 27.8516 84.2148 28.0703C84.1445 28.2812 84.043 28.4727 83.9102 28.6445C83.7773 28.8086 83.6094 28.9414 83.4062 29.043C83.2109 29.1445 82.9805 29.1953 82.7148 29.1953C82.5664 29.1953 82.4062 29.168 82.2344 29.1133C82.0625 29.0508 81.9023 28.9609 81.7539 28.8438C81.6133 28.7266 81.4922 28.582 81.3906 28.4102C81.2969 28.2305 81.25 28.0234 81.25 27.7891C81.25 27.6562 81.2656 27.5195 81.2969 27.3789C81.3281 27.2305 81.3594 27.082 81.3906 26.9336C81.4297 26.7852 81.4648 26.6445 81.4961 26.5117C81.5273 26.3789 81.543 26.2578 81.543 26.1484C81.543 25.5938 81.4102 25.1602 81.1445 24.8477C80.8789 24.5352 80.5469 24.3789 80.1484 24.3789C79.8984 24.3789 79.668 24.5156 79.457 24.7891C79.2461 25.0547 79.0625 25.4219 78.9062 25.8906C78.7578 26.3594 78.6406 26.9062 78.5547 27.5312C78.4766 28.1484 78.4375 28.8086 78.4375 29.5117C78.4375 31.1367 78.6289 32.3477 79.0117 33.1445C79.3945 33.9414 79.8945 34.3398 80.5117 34.3398C80.8867 34.3398 81.2344 34.2539 81.5547 34.082C81.8828 33.918 82.1836 33.6992 82.457 33.4258C82.7305 33.1523 82.9688 32.8477 83.1719 32.5117C83.3828 32.168 83.5586 31.8242 83.6992 31.4805L84.1328 31.6211C83.9609 32.1523 83.7422 32.6016 83.4766 32.9688C83.2109 33.3281 82.9258 33.6289 82.6211 33.8711C82.3164 34.1133 82.0078 34.3008 81.6953 34.4336C81.3906 34.5664 81.1055 34.6641 80.8398 34.7266C80.582 34.7969 80.3633 34.8359 80.1836 34.8438C80.0039 34.8594 79.8945 34.8672 79.8555 34.8672C79.0898 34.8672 78.3984 34.707 77.7812 34.3867C77.1719 34.0742 76.6523 33.6758 76.2227 33.1914C75.8008 32.707 75.4766 32.1719 75.25 31.5859C75.0234 31 74.9102 30.4375 74.9102 29.8984C74.9102 29.5391 74.957 29.1445 75.0508 28.7148C75.1445 28.2773 75.2852 27.8398 75.4727 27.4023C75.668 26.957 75.9102 26.5273 76.1992 26.1133C76.4883 25.6992 76.8242 25.332 77.207 25.0117C77.5898 24.6914 78.0195 24.4336 78.4961 24.2383C78.9727 24.043 79.5 23.9453 80.0781 23.9453C80.7812 23.9453 81.3984 24.0508 81.9297 24.2617C82.4609 24.4727 82.9023 24.7461 83.2539 25.082C83.6133 25.418 83.8789 25.7891 84.0508 26.1953C84.2305 26.6016 84.3203 27.0039 84.3203 27.4023ZM84.9531 17.6055L90.8359 17.4414L90.707 26.8516C90.8242 26.5469 90.9727 26.2305 91.1523 25.9023C91.332 25.5742 91.5391 25.2695 91.7734 24.9883C92.0156 24.707 92.2891 24.4688 92.5938 24.2734C92.8984 24.0781 93.2383 23.9609 93.6133 23.9219C94.0586 23.9219 94.4766 24.0039 94.8672 24.168C95.2578 24.3242 95.6133 24.543 95.9336 24.8242C96.2617 25.0977 96.5508 25.4219 96.8008 25.7969C97.0586 26.1719 97.2734 26.5703 97.4453 26.9922C97.6172 27.4141 97.7422 27.8477 97.8203 28.293C97.8984 28.7305 97.9297 29.1602 97.9141 29.582C97.9062 30.0195 97.8945 30.4688 97.8789 30.9297C97.8633 31.3281 97.8438 31.7695 97.8203 32.2539C97.8047 32.7305 97.7812 33.1992 97.75 33.6602L99.4023 33.6836V34.1172L92.8984 33.9766V33.543L94.1641 33.5664C94.2656 32.5195 94.3281 31.4727 94.3516 30.4258C94.375 29.3711 94.3633 28.3047 94.3164 27.2266C94.3242 26.7344 94.3164 26.3125 94.293 25.9609C94.2773 25.6094 94.2305 25.3203 94.1523 25.0938C94.082 24.8594 93.9805 24.6875 93.8477 24.5781C93.7227 24.4688 93.5586 24.4102 93.3555 24.4023C93.2227 24.4414 93.043 24.5195 92.8164 24.6367C92.5977 24.7539 92.3633 24.957 92.1133 25.2461C91.8633 25.5352 91.6094 25.9258 91.3516 26.418C91.1016 26.9102 90.8789 27.543 90.6836 28.3164L90.6133 33.543H91.8438V33.9766H85.75V33.543H86.8047L87.0391 17.9922L84.9531 18.0391V17.6055ZM111.484 29.6992C111.484 30.2383 111.391 30.7422 111.203 31.2109C111.023 31.6719 110.777 32.0977 110.465 32.4883C110.16 32.8711 109.809 33.2148 109.41 33.5195C109.02 33.8164 108.609 34.0664 108.18 34.2695C107.758 34.4805 107.336 34.6406 106.914 34.75C106.492 34.8594 106.102 34.9141 105.742 34.9141H105.625C105.266 34.9062 104.883 34.8477 104.477 34.7383C104.078 34.6289 103.68 34.4688 103.281 34.2578C102.891 34.0547 102.516 33.8008 102.156 33.4961C101.805 33.1914 101.492 32.8359 101.219 32.4297C100.945 32.0156 100.727 31.5547 100.562 31.0469C100.398 30.5312 100.316 29.9648 100.316 29.3477C100.316 28.7148 100.414 28.1367 100.609 27.6133C100.805 27.082 101.059 26.6094 101.371 26.1953C101.691 25.7812 102.051 25.4219 102.449 25.1172C102.855 24.8125 103.262 24.5586 103.668 24.3555C104.082 24.1523 104.477 24.0039 104.852 23.9102C105.234 23.8086 105.566 23.7578 105.848 23.7578H105.941C106.418 23.7734 106.887 23.8594 107.348 24.0156C107.809 24.1641 108.242 24.3711 108.648 24.6367C109.062 24.9023 109.441 25.2188 109.785 25.5859C110.137 25.9453 110.438 26.3438 110.688 26.7812C110.938 27.2188 111.133 27.6836 111.273 28.1758C111.414 28.668 111.484 29.1758 111.484 29.6992ZM107.734 29.5117C107.734 29.3164 107.734 29.0469 107.734 28.7031C107.734 28.3594 107.719 27.9922 107.688 27.6016C107.664 27.2031 107.617 26.8008 107.547 26.3945C107.477 25.9883 107.371 25.6211 107.23 25.293C107.09 24.9648 106.906 24.6992 106.68 24.4961C106.461 24.2852 106.184 24.1797 105.848 24.1797C105.207 24.1797 104.699 24.6172 104.324 25.4922C103.957 26.3672 103.773 27.6914 103.773 29.4648C103.773 30.3477 103.809 31.1055 103.879 31.7383C103.957 32.3711 104.074 32.8906 104.23 33.2969C104.387 33.7031 104.59 34 104.84 34.1875C105.09 34.3828 105.391 34.4805 105.742 34.4805H105.848C106.184 34.4648 106.461 34.3594 106.68 34.1641C106.906 33.9688 107.09 33.6719 107.23 33.2734C107.379 32.8672 107.488 32.3555 107.559 31.7383C107.637 31.1211 107.695 30.3789 107.734 29.5117ZM124.117 29.6992C124.117 30.2383 124.023 30.7422 123.836 31.2109C123.656 31.6719 123.41 32.0977 123.098 32.4883C122.793 32.8711 122.441 33.2148 122.043 33.5195C121.652 33.8164 121.242 34.0664 120.812 34.2695C120.391 34.4805 119.969 34.6406 119.547 34.75C119.125 34.8594 118.734 34.9141 118.375 34.9141H118.258C117.898 34.9062 117.516 34.8477 117.109 34.7383C116.711 34.6289 116.312 34.4688 115.914 34.2578C115.523 34.0547 115.148 33.8008 114.789 33.4961C114.438 33.1914 114.125 32.8359 113.852 32.4297C113.578 32.0156 113.359 31.5547 113.195 31.0469C113.031 30.5312 112.949 29.9648 112.949 29.3477C112.949 28.7148 113.047 28.1367 113.242 27.6133C113.438 27.082 113.691 26.6094 114.004 26.1953C114.324 25.7812 114.684 25.4219 115.082 25.1172C115.488 24.8125 115.895 24.5586 116.301 24.3555C116.715 24.1523 117.109 24.0039 117.484 23.9102C117.867 23.8086 118.199 23.7578 118.48 23.7578H118.574C119.051 23.7734 119.52 23.8594 119.98 24.0156C120.441 24.1641 120.875 24.3711 121.281 24.6367C121.695 24.9023 122.074 25.2188 122.418 25.5859C122.77 25.9453 123.07 26.3438 123.32 26.7812C123.57 27.2188 123.766 27.6836 123.906 28.1758C124.047 28.668 124.117 29.1758 124.117 29.6992ZM120.367 29.5117C120.367 29.3164 120.367 29.0469 120.367 28.7031C120.367 28.3594 120.352 27.9922 120.32 27.6016C120.297 27.2031 120.25 26.8008 120.18 26.3945C120.109 25.9883 120.004 25.6211 119.863 25.293C119.723 24.9648 119.539 24.6992 119.312 24.4961C119.094 24.2852 118.816 24.1797 118.48 24.1797C117.84 24.1797 117.332 24.6172 116.957 25.4922C116.59 26.3672 116.406 27.6914 116.406 29.4648C116.406 30.3477 116.441 31.1055 116.512 31.7383C116.59 32.3711 116.707 32.8906 116.863 33.2969C117.02 33.7031 117.223 34 117.473 34.1875C117.723 34.3828 118.023 34.4805 118.375 34.4805H118.48C118.816 34.4648 119.094 34.3594 119.312 34.1641C119.539 33.9688 119.723 33.6719 119.863 33.2734C120.012 32.8672 120.121 32.3555 120.191 31.7383C120.27 31.1211 120.328 30.3789 120.367 29.5117ZM125.055 33.8125H126.859L127.176 18.6602L125.113 18.6133V18.1797L130.68 18.2852L130.34 33.8125H132.719V34.2344H125.055V33.8125ZM142.949 28.1172C142.949 28.5312 142.816 28.9062 142.551 29.2422C142.285 29.5703 141.941 29.8516 141.52 30.0859C141.105 30.3203 140.641 30.5078 140.125 30.6484C139.617 30.7812 139.117 30.8516 138.625 30.8594C138.594 30.8594 138.523 30.8555 138.414 30.8477C138.305 30.8398 138.172 30.8164 138.016 30.7773C137.859 30.7305 137.684 30.6602 137.488 30.5664C137.293 30.4727 137.098 30.3359 136.902 30.1562C136.926 30.8516 136.988 31.4492 137.09 31.9492C137.199 32.4414 137.34 32.8477 137.512 33.168C137.691 33.4805 137.898 33.7109 138.133 33.8594C138.375 34 138.637 34.0703 138.918 34.0703C139.082 34.0703 139.301 34.0156 139.574 33.9062C139.855 33.7969 140.145 33.6289 140.441 33.4023C140.746 33.1758 141.043 32.8867 141.332 32.5352C141.621 32.1836 141.863 31.7617 142.059 31.2695L142.398 30.4023L142.82 30.543L142.633 31.0703C142.461 31.5312 142.234 31.9688 141.953 32.3828C141.672 32.7969 141.344 33.168 140.969 33.4961C140.602 33.8164 140.191 34.0742 139.738 34.2695C139.285 34.4727 138.801 34.5898 138.285 34.6211C137.387 34.5898 136.625 34.4297 136 34.1406C135.375 33.8516 134.867 33.4844 134.477 33.0391C134.086 32.5938 133.801 32.0977 133.621 31.5508C133.449 31.0039 133.363 30.4531 133.363 29.8984C133.363 29.5312 133.418 29.1328 133.527 28.7031C133.645 28.2656 133.812 27.8281 134.031 27.3906C134.25 26.9453 134.516 26.5156 134.828 26.1016C135.148 25.6875 135.508 25.3203 135.906 25C136.312 24.6797 136.754 24.4258 137.23 24.2383C137.715 24.043 138.234 23.9453 138.789 23.9453C139.297 23.9609 139.75 24.0391 140.148 24.1797C140.555 24.3125 140.91 24.4922 141.215 24.7188C141.527 24.9375 141.793 25.1875 142.012 25.4688C142.23 25.75 142.41 26.043 142.551 26.3477C142.691 26.6445 142.793 26.9492 142.855 27.2617C142.918 27.5664 142.949 27.8516 142.949 28.1172ZM138.602 24.3789C138.352 24.3945 138.117 24.5352 137.898 24.8008C137.688 25.0664 137.504 25.4297 137.348 25.8906C137.199 26.3438 137.082 26.8789 136.996 27.4961C136.91 28.1133 136.867 28.7773 136.867 29.4883C137.062 29.7148 137.258 29.8906 137.453 30.0156C137.648 30.1406 137.828 30.2344 137.992 30.2969C138.156 30.3516 138.293 30.3867 138.402 30.4023C138.512 30.418 138.578 30.4258 138.602 30.4258C138.906 30.418 139.156 30.3516 139.352 30.2266C139.555 30.1016 139.711 29.9297 139.82 29.7109C139.938 29.4922 140.02 29.2305 140.066 28.9258C140.113 28.6211 140.137 28.2812 140.137 27.9062C140.137 27.4375 140.105 26.9922 140.043 26.5703C139.988 26.1406 139.898 25.7656 139.773 25.4453C139.656 25.1172 139.5 24.8594 139.305 24.6719C139.109 24.4766 138.875 24.3789 138.602 24.3789ZM143.828 23.6992L149.711 23.5586L149.641 26.7578C149.781 26.4062 149.941 26.0703 150.121 25.75C150.309 25.4219 150.52 25.1289 150.754 24.8711C150.988 24.6133 151.25 24.4023 151.539 24.2383C151.828 24.0664 152.148 23.9609 152.5 23.9219C152.945 23.9219 153.363 24.0039 153.754 24.168C154.145 24.3242 154.5 24.543 154.82 24.8242C155.148 25.0977 155.438 25.4219 155.688 25.7969C155.938 26.1719 156.148 26.5703 156.32 26.9922C156.492 27.4141 156.617 27.8477 156.695 28.293C156.773 28.7305 156.805 29.1602 156.789 29.582C156.781 30.0195 156.77 30.4688 156.754 30.9297C156.738 31.3281 156.719 31.7695 156.695 32.2539C156.68 32.7305 156.656 33.1992 156.625 33.6602L158.277 33.6836V34.1172L151.773 33.9766V33.543L153.051 33.5664C153.238 31.4805 153.285 29.3672 153.191 27.2266C153.215 26.25 153.16 25.5391 153.027 25.0938C152.902 24.6484 152.637 24.418 152.23 24.4023C152.098 24.4414 151.922 24.5156 151.703 24.625C151.484 24.7344 151.25 24.9258 151 25.1992C150.758 25.4648 150.512 25.832 150.262 26.3008C150.02 26.7617 149.805 27.3594 149.617 28.0938L149.5 33.543H150.719V33.9766H144.625V33.543H145.68L145.914 24.0859L143.828 24.1328V23.6992ZM166.562 33.1562C166.531 33.3125 166.453 33.4609 166.328 33.6016C166.211 33.7344 166.066 33.8633 165.895 33.9883C165.723 34.1055 165.535 34.2109 165.332 34.3047C165.137 34.3984 164.945 34.4766 164.758 34.5391C164.578 34.6016 164.418 34.6445 164.277 34.668C164.145 34.6992 164.051 34.707 163.996 34.6914C163.387 34.6914 162.844 34.6133 162.367 34.457C161.898 34.3008 161.484 34.0938 161.125 33.8359C160.773 33.5703 160.477 33.2656 160.234 32.9219C159.992 32.5703 159.797 32.2031 159.648 31.8203C159.5 31.4297 159.391 31.0312 159.32 30.625C159.258 30.2188 159.227 29.832 159.227 29.4648C159.227 29.207 159.262 28.8906 159.332 28.5156C159.402 28.1406 159.512 27.75 159.66 27.3438C159.816 26.9375 160.016 26.5352 160.258 26.1367C160.5 25.7305 160.793 25.3672 161.137 25.0469C161.48 24.7266 161.879 24.4688 162.332 24.2734C162.785 24.0703 163.301 23.9688 163.879 23.9688C164.16 23.9688 164.434 24.0156 164.699 24.1094C164.973 24.1953 165.23 24.3164 165.473 24.4727C165.715 24.6211 165.941 24.8008 166.152 25.0117C166.363 25.2148 166.551 25.4336 166.715 25.668L166.855 18.6133H164.312V18.2852H170.312L170.02 33.8125H172.398V34.2344H166.539L166.562 33.1562ZM164.746 34.0234C164.926 34.0234 165.109 33.9727 165.297 33.8711C165.492 33.7695 165.676 33.6211 165.848 33.4258C166.02 33.2305 166.168 32.9883 166.293 32.6992C166.426 32.4023 166.523 32.0664 166.586 31.6914L166.715 26.5586C166.59 26.2617 166.445 26.0039 166.281 25.7852C166.125 25.5664 165.961 25.3789 165.789 25.2227C165.617 25.0664 165.441 24.9375 165.262 24.8359C165.09 24.7344 164.926 24.6523 164.77 24.5898C164.59 24.5898 164.391 24.6641 164.172 24.8125C163.953 24.9531 163.75 25.2188 163.562 25.6094C163.375 26 163.215 26.5391 163.082 27.2266C162.957 27.9141 162.895 28.8047 162.895 29.8984C162.895 30.6875 162.945 31.3477 163.047 31.8789C163.156 32.4102 163.297 32.8359 163.469 33.1562C163.648 33.4688 163.848 33.6914 164.066 33.8242C164.293 33.957 164.52 34.0234 164.746 34.0234ZM182.512 28.1172C182.512 28.5312 182.379 28.9062 182.113 29.2422C181.848 29.5703 181.504 29.8516 181.082 30.0859C180.668 30.3203 180.203 30.5078 179.688 30.6484C179.18 30.7812 178.68 30.8516 178.188 30.8594C178.156 30.8594 178.086 30.8555 177.977 30.8477C177.867 30.8398 177.734 30.8164 177.578 30.7773C177.422 30.7305 177.246 30.6602 177.051 30.5664C176.855 30.4727 176.66 30.3359 176.465 30.1562C176.488 30.8516 176.551 31.4492 176.652 31.9492C176.762 32.4414 176.902 32.8477 177.074 33.168C177.254 33.4805 177.461 33.7109 177.695 33.8594C177.938 34 178.199 34.0703 178.48 34.0703C178.645 34.0703 178.863 34.0156 179.137 33.9062C179.418 33.7969 179.707 33.6289 180.004 33.4023C180.309 33.1758 180.605 32.8867 180.895 32.5352C181.184 32.1836 181.426 31.7617 181.621 31.2695L181.961 30.4023L182.383 30.543L182.195 31.0703C182.023 31.5312 181.797 31.9688 181.516 32.3828C181.234 32.7969 180.906 33.168 180.531 33.4961C180.164 33.8164 179.754 34.0742 179.301 34.2695C178.848 34.4727 178.363 34.5898 177.848 34.6211C176.949 34.5898 176.188 34.4297 175.562 34.1406C174.938 33.8516 174.43 33.4844 174.039 33.0391C173.648 32.5938 173.363 32.0977 173.184 31.5508C173.012 31.0039 172.926 30.4531 172.926 29.8984C172.926 29.5312 172.98 29.1328 173.09 28.7031C173.207 28.2656 173.375 27.8281 173.594 27.3906C173.812 26.9453 174.078 26.5156 174.391 26.1016C174.711 25.6875 175.07 25.3203 175.469 25C175.875 24.6797 176.316 24.4258 176.793 24.2383C177.277 24.043 177.797 23.9453 178.352 23.9453C178.859 23.9609 179.312 24.0391 179.711 24.1797C180.117 24.3125 180.473 24.4922 180.777 24.7188C181.09 24.9375 181.355 25.1875 181.574 25.4688C181.793 25.75 181.973 26.043 182.113 26.3477C182.254 26.6445 182.355 26.9492 182.418 27.2617C182.48 27.5664 182.512 27.8516 182.512 28.1172ZM178.164 24.3789C177.914 24.3945 177.68 24.5352 177.461 24.8008C177.25 25.0664 177.066 25.4297 176.91 25.8906C176.762 26.3438 176.645 26.8789 176.559 27.4961C176.473 28.1133 176.43 28.7773 176.43 29.4883C176.625 29.7148 176.82 29.8906 177.016 30.0156C177.211 30.1406 177.391 30.2344 177.555 30.2969C177.719 30.3516 177.855 30.3867 177.965 30.4023C178.074 30.418 178.141 30.4258 178.164 30.4258C178.469 30.418 178.719 30.3516 178.914 30.2266C179.117 30.1016 179.273 29.9297 179.383 29.7109C179.5 29.4922 179.582 29.2305 179.629 28.9258C179.676 28.6211 179.699 28.2812 179.699 27.9062C179.699 27.4375 179.668 26.9922 179.605 26.5703C179.551 26.1406 179.461 25.7656 179.336 25.4453C179.219 25.1172 179.062 24.8594 178.867 24.6719C178.672 24.4766 178.438 24.3789 178.164 24.3789ZM188.699 26.5586C188.934 26.0977 189.184 25.7344 189.449 25.4688C189.715 25.2031 189.961 24.9961 190.188 24.8477C190.445 24.6836 190.707 24.5664 190.973 24.4961C191.301 24.4648 191.582 24.4961 191.816 24.5898C192.059 24.6758 192.254 24.8047 192.402 24.9766C192.559 25.1484 192.672 25.3516 192.742 25.5859C192.812 25.8203 192.848 26.0664 192.848 26.3242C192.848 26.5742 192.82 26.8281 192.766 27.0859C192.719 27.3438 192.652 27.5898 192.566 27.8242C192.488 28.0586 192.391 28.2734 192.273 28.4688C192.164 28.6641 192.051 28.8203 191.934 28.9375H191.957C191.73 29.1797 191.516 29.3477 191.312 29.4414C191.109 29.5352 190.91 29.582 190.715 29.582C190.363 29.582 190.078 29.4727 189.859 29.2539C189.641 29.0352 189.531 28.7383 189.531 28.3633C189.531 28.0742 189.598 27.7578 189.73 27.4141C189.863 27.0703 190.086 26.7539 190.398 26.4648C190.602 26.293 190.812 26.1523 191.031 26.043C191.219 25.9492 191.43 25.875 191.664 25.8203C191.898 25.7656 192.133 25.7812 192.367 25.8672C192.305 25.5703 192.168 25.3281 191.957 25.1406C191.746 24.9531 191.434 24.8828 191.02 24.9297C190.723 24.9922 190.434 25.1289 190.152 25.3398C189.91 25.5195 189.656 25.7891 189.391 26.1484C189.133 26.5 188.91 26.9805 188.723 27.5898L188.84 33.7891L190.855 33.7305V34.1641L183.637 34.3164V33.8828L185.195 33.8594L185.289 25.2109L184.012 25.1406V24.707L188.676 24.9062L188.699 26.5586Z" fill="#003566"/>
</svg>
